<?xml version="1.0" encoding="UTF-8" standalone="no"?>
<!-- Created with Inkscape (http://www.inkscape.org/) -->

<svg
   xmlns:dc="http://purl.org/dc/elements/1.1/"
   xmlns:cc="http://creativecommons.org/ns#"
   xmlns:rdf="http://www.w3.org/1999/02/22-rdf-syntax-ns#"
   xmlns:svg="http://www.w3.org/2000/svg"
   xmlns="http://www.w3.org/2000/svg"
   version="1.1"
   width="107.71"
   height="133.03999"
   id="svg2"
   xml:space="preserve"><metadata
     id="metadata8"><rdf:RDF><cc:Work
         rdf:about=""><dc:format>image/svg+xml</dc:format><dc:type
           rdf:resource="http://purl.org/dc/dcmitype/StillImage" /><dc:title></dc:title></cc:Work></rdf:RDF></metadata><defs
     id="defs6"><clipPath
       id="clipPath366"><path
         d="m 0.015,841.89 595.261,0 0,-841.89 -595.261,0 0,841.89 z"
         id="path368" /></clipPath><clipPath
       id="clipPath384"><path
         d="m 0.015,841.89 595.261,0 0,-841.89 -595.261,0 0,841.89 z"
         id="path386" /></clipPath><clipPath
       id="clipPath400"><path
         d="m 0.015,841.89 595.261,0 0,-841.89 -595.261,0 0,841.89 z"
         id="path402" /></clipPath></defs><g
     transform="matrix(1.25,0,0,-1.25,-531.44375,165.05754)"
     id="g10"><path
       d="m 456.66431,129.26038 c 0.139,0.048 -0.143,-0.043 0,0"
       id="path118"
       style="fill:#151616;fill-opacity:1;fill-rule:nonzero;stroke:none" /><path
       d="m 456.66431,129.26038 c 0.026,0.007 -0.025,-0.007 0,0"
       id="path122"
       style="fill:#151616;fill-opacity:1;fill-rule:nonzero;stroke:none" /><path
       d="m 468.61031,57.698388 0.085,0 c 4.132,0 8.017,0.604 11.775,1.74 4.039,1.402 7.874,4.221 10.192,7.734 3.823,5.591 7.292,16.399 7.437,27.159 l 0,0.034 c -0.145,10.759992 -3.614,21.566992 -7.437,27.161992 -2.318,3.509 -6.067,6.328 -10.105,7.733 -3.761,1.137 -7.824,1.737 -11.947,1.737 -4.128,0 -8.189,-0.6 -11.946,-1.737 -4.042,-1.405 -7.786,-4.224 -10.101,-7.733 -3.826,-5.595 -7.297,-16.402 -7.446,-27.161992 l 0,-0.034 c 0.149,-10.76 3.62,-21.568 7.446,-27.159 2.315,-3.513 6.059,-6.319 10.101,-7.726 3.757,-1.131 7.732,-1.748 11.857,-1.748 l 0.089,0"
       id="path126"
       style="fill:#676659;fill-opacity:1;fill-rule:nonzero;stroke:none" /><path
       d="m 495.8243,94.348382 c 0.132,-8.105 -2.338,-17.944 -4.718,-23.18 -2.638,-5.985 -6.665,-9.623 -12.583,-11.239 -3.183,-0.82 -6.528,-1.236 -9.964,-1.236 -3.433,0 -6.797,0.416 -9.98,1.236 -5.913,1.616 -9.944,5.254 -12.575,11.239 -2.386,5.236 -4.854,15.075 -4.723,23.18 -0.131,8.104998 2.337,17.942998 4.723,23.175998 2.631,5.989 6.662,9.626 12.575,11.243 3.183,0.817 6.547,1.234 9.98,1.234 3.436,0 6.781,-0.417 9.964,-1.234 5.918,-1.617 9.945,-5.254 12.583,-11.243 2.38,-5.233 4.85,-15.071 4.718,-23.175998"
       id="path130"
       style="fill:#ffffff;fill-opacity:1;fill-rule:nonzero;stroke:none" /><path
       d="m 468.65531,121.34838 c 2.831,0 5.66,-0.397 8.267,-1.1 2.778,-0.795 5.058,-2.708 6.203,-5.312 2.488,-5.346 4.128,-13.032 4.128,-20.587996 0,-7.56 -1.64,-15.243 -4.128,-20.587 -1.145,-2.601 -3.425,-4.521 -6.203,-5.313 -2.607,-0.703 -5.436,-1.097 -8.267,-1.097 l -0.089,0 c -2.834,0 -5.66,0.394 -8.269,1.097 -2.779,0.792 -5.053,2.712 -6.202,5.313 -2.497,5.344 -4.128,13.027 -4.128,20.587 0,7.555996 1.631,15.241996 4.128,20.587996 1.149,2.604 3.423,4.517 6.202,5.312 2.609,0.703 5.435,1.1 8.269,1.1 l 0.089,0"
       id="path134"
       style="fill:#676659;fill-opacity:1;fill-rule:nonzero;stroke:none" /><path
       d="m 472.66232,111.03338 c -0.395,0.663 -0.072,0.072 -0.481,0.844"
       id="path138"
       style="fill:#ffffff;fill-opacity:1;fill-rule:nonzero;stroke:none" /><path
       d="m 464.24131,95.797387 0,-2.717 -9.349,-0.007 0,2.719 9.349,0.005"
       id="path142"
       style="fill:#ffffff;fill-opacity:1;fill-rule:nonzero;stroke:none" /><path
       d="m 462.12531,72.266381 c -0.195,0.429 -0.274,0.579 -0.291,1.023 1.954,0 3.274,0 5.347,-0.003 -0.013,-0.742 -0.432,-1.468 -1.107,-1.949 -0.741,-0.538 -1.973,-0.664 -2.794,-0.204 -0.473,0.228 -0.897,0.685 -1.155,1.133"
       id="path146"
       style="fill:#ffffff;fill-opacity:1;fill-rule:nonzero;stroke:none" /><path
       d="m 467.89732,74.438379 -2.867,-0.003 0,1.33 2.879,0 0.903,1.069 c 0.44,-0.512 0.475,-0.55 0.931,-1.069 l 2.874,0 0,-1.33 -2.879,0.003 c 0,-1.436 0,-1.633 0,-3.304 -0.576,0 -1.315,0 -1.841,0 l 0,3.304"
       id="path150"
       style="fill:#ffffff;fill-opacity:1;fill-rule:nonzero;stroke:none" /><path
       d="m 468.2383,78.559381 c 0.586,0.196 1.42,0.534 1.584,1.103 -0.044,0.886 0.566,1.596 1.019,2.303 0.231,0.305 0.26,0.49 0.193,0.824 0.915,-0.04 1.84,-0.803 2.197,-1.655 0.364,-0.872 0.222,-2.012 -0.342,-2.739 -0.703,-0.854 -1.679,-1.307 -2.817,-1.102 -0.715,0.158 -1.422,0.595 -1.834,1.266"
       id="path154"
       style="fill:#ffffff;fill-opacity:1;fill-rule:nonzero;stroke:none" /><path
       d="m 461.33631,90.478387 c -0.508,0.253 -1.198,0.359 -1.769,0.086 -0.458,-0.123 -0.943,-0.667 -0.988,-1.21 -0.029,-1.616 0.027,-2.114 0,-3.892 -0.029,-0.28 -0.173,-0.412 -0.525,-0.412 -0.297,0.013 -0.52,0.161 -0.515,0.419 l 0,3.969 c -0.027,0.423 -0.095,0.832 -0.386,1.152 l -2.058,-0.673 -0.185,-0.063 c 0.52,-0.388 0.759,-0.4 0.804,-1.039 l -0.002,-5.08 0.029,-0.273 0.074,-0.174 0.061,-0.164 0.068,-0.127 c 0.341,-0.545 0.913,-0.761 1.315,-0.864 0.179,-0.054 0.488,-0.079 0.662,-0.081 0.536,-10e-4 1.039,0.031 1.583,0.412 0.846,0.665 0.66,1.825 0.685,3.509 0.005,0.475 0.035,0.737 0.333,1.009 0.243,0.186 0.587,0.245 0.9,0.179 0.359,-0.099 0.417,-0.129 0.776,-0.364 0.01,1.454 0.056,3.249 -0.862,3.681"
       id="path158"
       style="fill:#ffffff;fill-opacity:1;fill-rule:nonzero;stroke:none" /><path
       d="m 480.41631,84.107385 c -1.503,1.474 -4.103,3.53 -4.313,4.403 -0.226,0.585 -0.154,1.293 -0.168,1.972 0.438,0.34 0.792,0.637 1.315,1.047 -0.038,-1.04 -0.182,-2.096 0.319,-2.714 1.228,-1.222 2.339,-2.325 3.443,-3.409 0.412,-0.444 0.738,-1.078 0.47,-1.664 -0.131,-0.285 -0.306,-0.601 -0.495,-0.858 0,0.57 -0.245,0.9 -0.571,1.223"
       id="path162"
       style="fill:#ffffff;fill-opacity:1;fill-rule:nonzero;stroke:none" /><path
       d="m 471.91131,91.59739 c 1.147,0.016 1.515,-0.015 2.705,0.006 l 0,-8.028 -2.713,0 0.008,8.022"
       id="path166"
       style="fill:#ffffff;fill-opacity:1;fill-rule:nonzero;stroke:none" /><path
       d="m 477.98331,90.85238 c 0.289,0.316 0.39,0.432 0.728,0.762 l 0.683,-0.821 0,-2.283 c 0.965,0.469 0.728,1.839 0.728,3.024 0.574,-0.47 0.863,-0.73 1.408,-1.247 0.308,-1.368 -0.511,-2.142 -1.123,-3.102 l -2.424,2.317 0,1.35"
       id="path170"
       style="fill:#ffffff;fill-opacity:1;fill-rule:nonzero;stroke:none" /><path
       d="m 480.18832,96.990381 0.369,1.529 1.18,0.176 0,3.790999 c -0.46,-0.07 -0.646,-0.118 -1.021,-0.161 l 0,2.875 c -0.619,-0.127 -1.282,-0.351 -1.941,-0.504 l 0,-4.771999 c -0.006,-0.229 -0.37,-0.306 -0.447,-0.304 l -0.099,0 c -0.236,0 -0.47,0.163 -0.47,0.323 0,1.734999 0,2.965999 0,4.596999 l -1.896,-0.243 0,-1.938 c -0.67,-1.361 -1.661,-2.597999 -2.624,-3.839999 1.026,-0.075 1.099,-0.075 2.118,-0.168 l 0.627,-1.361 4.204,0"
       id="path174"
       style="fill:#ffffff;fill-opacity:1;fill-rule:nonzero;stroke:none" /><path
       d="m 458.62431,97.933389 c -0.033,1.253 -0.086,2.075001 -0.115,3.313001 0.39,0.104 0.769,-0.14 1.068,-0.36401 -0.046,-1.576991 -0.046,-1.558991 -0.081,-3.213991 l -0.867,0 -0.005,0.265"
       id="path178"
       style="fill:#ffffff;fill-opacity:1;fill-rule:nonzero;stroke:none" /><path
       d="m 458.45431,105.14438 c -0.207,1.236 -0.227,1.325 -0.341,2.233 -0.301,0 -0.404,0 -0.787,0 l 0,0.866 c 1.359,0.004 2.114,-0.002 3.477,-0.002 l 0.002,-0.864 c -0.339,0 -0.472,0 -0.816,0 l -0.352,-2.912 c -0.349,0.316 -0.747,0.538 -1.183,0.679"
       id="path182"
       style="fill:#ffffff;fill-opacity:1;fill-rule:nonzero;stroke:none" /><path
       d="m 458.31332,108.86638 c -1.166,1.246 -1.245,3.116 -1.021,4.804 l 0.002,0.006 c 0.212,-0.624 0.607,-1.072 1.234,-1.369 -0.072,0.333 -0.364,0.634 -0.458,0.983 -0.272,0.687 -0.246,1.664 0.2,2.26 0.316,0.47 0.771,0.664 1.271,0.822 -0.192,-0.566 -0.25,-1.238 -0.018,-1.81 0.328,0.247 0.344,0.264 0.597,0.51 0.094,0.091 0.139,0.119 0.22,0.182 0.465,-0.991 0.988,-2.351 0.682,-3.506 l -0.188,-0.494 c -0.075,0.813 -0.208,1.203 -0.754,1.497 -0.072,-0.473 0.232,-0.812 0.301,-1.429 0.224,-0.957 0.048,-1.903 -0.542,-2.456 l -1.526,0"
       id="path186"
       style="fill:#ffffff;fill-opacity:1;fill-rule:nonzero;stroke:none" /><path
       d="m 472.66232,111.03338 -1.202,-1.315 c -0.325,0.311 -0.351,0.34 -0.674,0.68 0.619,0.647 0.679,0.715 1.395,1.479"
       id="path190"
       style="fill:#ffffff;fill-opacity:1;fill-rule:nonzero;stroke:none" /><path
       d="m 474.23231,114.23137 c 0.243,1.14 0.374,2.455 1.626,2.928 0.472,0.135 1.115,0.077 1.516,-0.278 0.537,-0.39 0.693,-1.047 0.564,-1.659 -0.376,-1.323 -1.853,-1.57 -3.051,-1.883 l -0.655,0.892"
       id="path194"
       style="fill:#ffffff;fill-opacity:1;fill-rule:nonzero;stroke:none" /><path
       d="m 482.53231,95.797387 0,-2.738 -9.349,0.014 0,2.719 9.349,0.005"
       id="path198"
       style="fill:#ffffff;fill-opacity:1;fill-rule:nonzero;stroke:none" /><path
       d="m 459.95531,77.542382 c -0.379,1.725 1.705,2.344 2.2,3.778 0.387,2.398 0.503,4.923 2.171,6.79 0.163,3.521 1.303,6.636 3.806,9.195 -0.117,0.795 -0.443,1.484 -0.681,2.223 -0.328,0.013 -0.55,0.076 -0.846,0.34 -0.218,0.306998 -0.306,0.535998 -0.362,0.906998 -0.872,-1.080998 -1.952,-2.289998 -3.14,-3.018998 -0.216,-0.123 -0.493,0.135 -0.89,0.504 -1.459,1.152 -1.704,3.755998 -3.926,3.642998 -1.009,0.338 -0.961,1.527 -1.128,2.416 0.374,0.274 0.984,0.261 1.431,0.086 1.388,-0.742 2.314,-2.305 3.623,-3.351 0.349,-0.279 0.665,-0.645 0.987,-0.78 0.861,0.74 1.547,1.376 2.133,2.518 0.402,0.652 1.072,0.932 1.814,0.94 l 0.527,0.622 -0.279,1.554 c -0.542,0.693 -0.99,1.417 -1.354,2.195 0.19,0.89 0.306,1.929 1.208,2.42 0.589,0.366 1.069,-0.468 1.553,0.06 0.353,0.073 0.659,-0.023 0.904,-0.225 0.366,-0.636 0.797,-1.269 0.822,-2.008 -0.225,-0.719 -0.564,-1.387 -0.905,-2.058 -0.076,-0.148 -0.283,-0.196 -0.423,-0.305 0.084,-0.303 0.157,-0.64 0.367,-0.88 0.266,-0.057 0.522,-0.104 0.842,-0.046 0.261,0.786 1.107,1.139 1.813,1.351 l 1.549,1.01 c -0.248,1.176 0.506,2.21 0.087,3.379 -0.887,0.42 -1.14,1.417 -1.33,2.204 0.141,0.485 0.381,1.005 0.732,1.42 l 0.051,-0.061 c 0.848,-0.983 1.623,-1.998 1.894,-3.22 0.151,-1.56 0.303,-3.16 0.202,-4.791 -0.839,-0.834 -1.848,-1.329 -2.798,-1.948 l -0.706,-1.353 c -0.083,-1.396 -0.493,-2.653 -0.708,-4.004998 0.602,-1.634 1.315,-3.809 0.791,-5.32 -0.406,-0.901 -1.251,-1.393 -1.88,-1.894 l -1.588,-1.269 c 1.595,-1.755 1.209,-3.746 1.277,-6.29 -0.017,-0.614 1.084,-1.125 0.498,-1.827 -0.491,-0.784 -1.254,-1.421 -1.127,-2.452 -0.489,-0.821 -1.652,-0.996 -2.207,-0.989 -0.115,-0.007 -0.21,0.083 -0.21,0.2 0.116,0.422 0.444,0.753 0.617,1.153 0.568,0.868 0.308,2.067 1.013,2.874 -0.579,1.891 -1.456,3.643 -1.697,5.66 l -0.015,0.13 c -0.474,-0.927 -0.212,-1.837 0.036,-2.569 -1.563,-1.971 -3.259,-3.866 -3.259,-6.459 -0.67,-1.188 -1.62,-2.27 -2.116,-3.526 -0.164,-0.211 -0.477,-0.029 -0.667,0.082 -0.447,0.294 -0.549,0.584 -0.706,0.991"
       id="path202"
       style="fill:#ffffff;fill-opacity:1;fill-rule:nonzero;stroke:none" /><path
       d="m 477.11631,86.049386 c 1.503,-1.474 4.103,-3.532 4.313,-4.403 0.223,-0.59 0.154,-1.29 0.164,-1.975 -0.434,-0.344 -0.793,-0.637 -1.316,-1.043 0.038,1.038 0.186,2.096 -0.316,2.712 -1.226,1.216 -2.337,2.324 -3.443,3.409 -0.41,0.443 -0.739,1.078 -0.47,1.664 0.128,0.282 0.304,0.602 0.494,0.856 0,-0.571 0.251,-0.897 0.574,-1.22"
       id="path206"
       style="fill:#ffffff;fill-opacity:1;fill-rule:nonzero;stroke:none" /><path
       d="m 479.5463,79.303384 c -0.289,-0.318 -0.39,-0.435 -0.727,-0.767 l -0.684,0.821 0,2.289 c -0.961,-0.473 -0.731,-1.837 -0.731,-3.021 -0.568,0.463 -0.855,0.727 -1.402,1.242 -0.309,1.366 0.507,2.142 1.125,3.103 l 2.419,-2.319 0,-1.348"
       id="path210"
       style="fill:#ffffff;fill-opacity:1;fill-rule:nonzero;stroke:none" /><path
       d="m 475.5013,72.266381 c 0.2,0.429 0.273,0.579 0.294,1.023 -1.961,0 -3.272,0 -5.345,-0.003 0.01,-0.742 0.432,-1.468 1.104,-1.949 0.738,-0.538 1.974,-0.664 2.793,-0.204 0.474,0.228 0.891,0.685 1.154,1.133"
       id="path214"
       style="fill:#ffffff;fill-opacity:1;fill-rule:nonzero;stroke:none" /><path
       d="m 469.55531,60.604379 c -0.027,1.483 1.424,2.233 2.337,3.216 0.249,0.236 0.34,0.708 0.164,1.096 -0.111,0.245 -0.268,0.365 -0.473,0.416 -0.317,0.072 -0.587,0.025 -0.792,-0.152 -0.282,-0.265 -0.359,-0.608 -0.345,-0.978 l -1.019,-0.06 c -0.087,0.563 0.053,1.108 0.396,1.535 0.473,0.506 1.185,0.645 1.879,0.6 0.551,-0.092 1.197,-0.425 1.426,-1.003 0.295,-0.627 0.195,-1.435 -0.269,-1.964 -0.601,-0.64 -1.382,-0.987 -1.88,-1.707 l 2.563,0.152 c 0.023,-0.313 0.044,-0.624 0.056,-0.915 l -4.043,-0.236"
       id="path218"
       style="fill:#676659;fill-opacity:1;fill-rule:nonzero;stroke:none" /><path
       d="m 460.45132,67.017389 -0.017,-0.048 -1.669,-5.125 -1.069,0.35 1.148,3.504 0.017,0.061 c -0.427,0.15 -0.94,0.296 -1.352,0.441 l 0.217,0.666 c 0.539,-0.143 1.094,-0.235 1.565,0.156 0.172,0.136 0.202,0.171 0.295,0.273 l 0.865,-0.278"
       id="path222"
       style="fill:#676659;fill-opacity:1;fill-rule:nonzero;stroke:none" /><path
       d="m 479.46331,63.16839 c -0.135,-0.157 -0.379,-0.28 -0.64,-0.343 -0.266,-0.065 -0.536,-0.073 -0.728,0.007 -0.265,0.1 -0.449,0.304 -0.516,0.538 -0.101,0.353 0,0.722 0.296,0.933 0.135,0.089 0.321,0.175 0.521,0.232 0.207,0.042 0.417,0.054 0.566,0.032 0.369,-0.043 0.629,-0.324 0.701,-0.68 0.05,-0.24 -0.012,-0.511 -0.2,-0.719 z m -2.24,2.471 c -0.131,0.221 -0.131,0.597 0.101,0.818 0.129,0.141 0.322,0.239 0.529,0.29 0.202,0.055 0.424,0.057 0.608,-0.01 0.301,-0.091 0.472,-0.423 0.466,-0.68 -0.003,-0.197 -0.091,-0.354 -0.218,-0.475 -0.131,-0.117 -0.316,-0.202 -0.508,-0.246 -0.191,-0.051 -0.389,-0.057 -0.56,-0.018 -0.17,0.051 -0.322,0.147 -0.418,0.321 z m 3.527,-1.462 c -0.135,0.504 -0.417,0.909 -0.979,1.071 l -0.325,0.07 c 0.335,0.236 0.644,0.715 0.533,1.176 -0.079,0.527 -0.46,0.862 -0.94,1.043 -0.42,0.132 -0.911,0.108 -1.376,-0.017 -0.472,-0.106 -0.91,-0.315 -1.229,-0.626 -0.335,-0.384 -0.518,-0.855 -0.337,-1.36 0.113,-0.461 0.607,-0.738 1.01,-0.793 l -0.253,-0.212 c -0.427,-0.41 -0.48,-0.895 -0.367,-1.405 0.124,-0.567 0.581,-1.012 1.135,-1.176 0.415,-0.104 0.918,-0.096 1.409,0.02 0.492,0.122 0.94,0.346 1.259,0.64 0.414,0.405 0.611,1.005 0.46,1.569"
       id="path226"
       style="fill:#676659;fill-opacity:1;fill-rule:nonzero;stroke:none" /><path
       d="m 465.37431,61.674386 c -0.175,-0.11 -0.445,-0.158 -0.716,-0.138 -0.27,0.013 -0.528,0.096 -0.69,0.219 -0.225,0.177 -0.334,0.427 -0.328,0.678 0.007,0.359 0.214,0.682 0.561,0.794 0.152,0.045 0.354,0.075 0.564,0.064 0.207,-0.016 0.414,-0.065 0.551,-0.13 0.336,-0.155 0.502,-0.5 0.465,-0.865 -0.021,-0.237 -0.169,-0.476 -0.407,-0.622 z m -1.403,3.024 c -0.055,0.249 0.058,0.609 0.343,0.752 0.159,0.094 0.38,0.132 0.587,0.116 0.213,-0.012 0.425,-0.075 0.577,-0.188 0.265,-0.173 0.33,-0.546 0.245,-0.789 -0.059,-0.192 -0.195,-0.308 -0.351,-0.391 -0.162,-0.068 -0.359,-0.094 -0.557,-0.08 -0.197,0.009 -0.39,0.059 -0.539,0.15 -0.146,0.095 -0.268,0.235 -0.305,0.43 z m 2.93,-2.447 c 0.023,0.52 -0.124,0.993 -0.612,1.314 l -0.288,0.164 c 0.385,0.122 0.821,0.485 0.852,0.963 0.085,0.53 -0.182,0.963 -0.582,1.281 -0.364,0.248 -0.834,0.369 -1.319,0.393 -0.481,0.038 -0.966,-0.031 -1.356,-0.232 -0.439,-0.267 -0.755,-0.666 -0.735,-1.199 -0.025,-0.474 0.364,-0.889 0.735,-1.059 l -0.308,-0.129 c -0.533,-0.259 -0.728,-0.708 -0.766,-1.23 -0.051,-0.581 0.253,-1.138 0.734,-1.457 0.359,-0.232 0.846,-0.372 1.352,-0.409 0.498,-0.027 0.998,0.058 1.39,0.245 0.516,0.26 0.88,0.774 0.903,1.355"
       id="path230"
       style="fill:#676659;fill-opacity:1;fill-rule:nonzero;stroke:none" /><path
       d="m 491.02432,114.22937 -4.99,-2.149 -0.443,1.035 4.985,2.154 0.448,-1.04"
       id="path234"
       style="fill:#676659;fill-opacity:1;fill-rule:nonzero;stroke:none" /><path
       d="m 472.23431,122.84838 -1.282,5.59 1.183,-0.119 c 0.236,-1.383 0.479,-2.952 0.759,-4.118 0.511,1.088 1.062,2.574 1.568,3.878 l 1.167,-0.116 -2.361,-5.22 -1.034,0.105"
       id="path238"
       style="fill:#676659;fill-opacity:1;fill-rule:nonzero;stroke:none" /><path
       d="m 451.02232,119.65339 -1.211,-2.169 -1.024,0.569 1.387,2.488 -0.778,0.442 -1.942,-3.484 4.738,-2.649 1.944,3.487 -0.786,0.439 -1.393,-2.495 -1.327,0.745 1.216,2.169 -0.824,0.458"
       id="path242"
       style="fill:#676659;fill-opacity:1;fill-rule:nonzero;stroke:none" /><path
       d="m 447.43031,94.12539 -1.515,-10e-4 -0.01,0 c 0.026,1.205 -0.161,1.916 0.557,2.055 0.25,0.068 0.558,0.041 0.745,-0.147 0.308,-0.297 0.213,-0.79 0.223,-1.907 z m -2.342,-10e-4 -1.334,0 c 0.04,1.24 -0.162,1.908 0.599,1.988 0.451,0.034 0.571,-0.065 0.675,-0.34 0.086,-0.276 0.06,-0.571 0.06,-1.648 z m 3.062,2.457 c -0.257,0.586 -0.887,0.818 -1.534,0.786 -0.547,-0.069 -0.961,-0.438 -1.196,-1.002 -0.081,0.33 -0.392,0.742 -0.913,0.807 -0.544,0.067 -1.067,-0.081 -1.327,-0.543 -0.359,-0.457 -0.202,-2.476 -0.238,-3.64 l 5.39,0.005 0.002,0.393 c -0.032,2.144 0.094,2.405 -0.184,3.194"
       id="path246"
       style="fill:#676659;fill-opacity:1;fill-rule:nonzero;stroke:none" /><path
       d="m 491.06731,111.21238 0.864,0.223 1.093,-4.244 -0.868,-0.223 -0.399,1.569 -4.361,-1.125 -0.278,1.099 4.354,1.124 -0.405,1.577"
       id="path250"
       style="fill:#676659;fill-opacity:1;fill-rule:nonzero;stroke:none" /><path
       d="m 463.65931,122.53838 c -0.608,-0.104 -1.228,-0.043 -1.726,0.26 -0.432,0.253 -0.587,0.575 -0.665,0.971 l -0.624,3.878 1.102,0.18 0.627,-3.879 c 0.063,-0.318 0.346,-0.514 0.64,-0.574 0.161,-0.038 0.341,-0.037 0.515,-0.005"
       id="path254"
       style="fill:#676659;fill-opacity:1;fill-rule:nonzero;stroke:none" /><path
       d="m 463.67231,122.54038 c 0.603,0.092 1.171,0.344 1.554,0.792 0.329,0.371 0.377,0.728 0.326,1.125 l -0.619,3.885 -1.109,-0.178 0.624,-3.881 c 0.036,-0.293 -0.167,-0.594 -0.427,-0.744 -0.144,-0.093 -0.312,-0.144 -0.493,-0.169"
       id="path258"
       style="fill:#676659;fill-opacity:1;fill-rule:nonzero;stroke:none" /><path
       d="m 490.43931,101.80738 -0.189,1.345 2.343,-0.358 0.006,0 -0.004,-0.002 0.009,0 -0.011,0 -2.154,-0.985 z m 3.135,1.711 -5.639,1.131 0.154,-1.099 1.229,-0.224 0.267,-1.942 -1.113,-0.552 0.147,-1.103996 5.118,2.634996 -0.163,1.155"
       id="path262"
       style="fill:#676659;fill-opacity:1;fill-rule:nonzero;stroke:none" /><path
       d="m 492.75831,94.192392 0.101,0.017 0.124,0.031 0.088,0.036 c 0.359,0.194 0.445,0.67 0.422,1.056 -0.01,0.392 -0.132,0.79 -0.498,0.938 -0.193,0.05 -0.432,0.066 -0.561,-0.131 -0.615,-0.907 -0.189,-2.829 -1.767,-3.163 -0.69,-0.119 -1.294,0.185 -1.651,0.735 -0.488,0.87 -0.528,2.238 0.032,3.088 0.337,0.44 0.792,0.713 1.341,0.718 l 0.071,-1.041 c -0.34,-0.046 -0.673,-0.218 -0.827,-0.554 -0.226,-0.543 -0.175,-1.407 0.227,-1.726 0.149,-0.166 0.481,-0.143 0.665,-0.047 0.629,0.45 0.501,1.573 0.817,2.327 0.103,0.318 0.402,0.641 0.696,0.804 0.557,0.238 1.27,0.152 1.718,-0.289 0.723,-0.682 0.754,-2.019 0.422,-2.83 -0.189,-0.564 -0.803,-0.972 -1.431,-1.008 l -0.068,1.037 0.079,0.002"
       id="path266"
       style="fill:#676659;fill-opacity:1;fill-rule:nonzero;stroke:none" /><path
       d="m 449.06532,102.38038 c -0.094,-0.603 -0.339,-1.176 -0.785,-1.557 -0.371,-0.332 -0.725,-0.381 -1.125,-0.333 l -3.885,0.609 0.174,1.102 3.879,-0.601 c 0.323,-0.039 0.593,0.169 0.743,0.423 0.093,0.145 0.146,0.318 0.171,0.493"
       id="path270"
       style="fill:#676659;fill-opacity:1;fill-rule:nonzero;stroke:none" /><path
       d="m 449.06532,102.39138 c 0.101,0.608 0.042,1.23 -0.266,1.724 -0.25,0.431 -0.574,0.586 -0.974,0.667 l -3.88,0.603 -0.176,-1.099 3.885,-0.617 c 0.291,-0.044 0.513,-0.342 0.573,-0.63 0.041,-0.166 0.041,-0.343 0.01,-0.523"
       id="path274"
       style="fill:#676659;fill-opacity:1;fill-rule:nonzero;stroke:none" /><path
       d="m 455.74731,122.07837 -0.6,2.289 -0.004,0.009 0.004,-0.003 -0.002,0.01 0.005,-0.014 1.754,-1.584 -1.157,-0.707 z m -0.66,3.514 -0.992,-0.605 1.189,-5.624 0.955,0.573 -0.282,1.217 1.673,1.02 0.953,-0.811 0.948,0.579 -4.444,3.651"
       id="path278"
       style="fill:#676659;fill-opacity:1;fill-rule:nonzero;stroke:none" /><path
       d="m 481.4343,123.82538 -2.285,0.96 0.45,1.081 2.624,-1.1 0.352,0.828 -3.679,1.539 -2.098,-5.008 3.681,-1.538 0.349,0.831 -2.635,1.103 0.585,1.4 2.302,-0.968 0.354,0.872"
       id="path282"
       style="fill:#676659;fill-opacity:1;fill-rule:nonzero;stroke:none" /><path
       d="m 447.30531,109.85637 -1.365,0.401 c 0.302,0.925 0.435,1.86 1.085,1.807 0.265,-0.045 0.445,-0.116 0.597,-0.306 0.254,-0.312 -0.072,-1.008 -0.317,-1.902 z m 1.079,1.943 c -0.002,0.371 -0.022,0.68 -0.33,0.977 -0.296,0.31 -0.771,0.451 -1.236,0.418 -1.209,-0.183 -1.368,-1.57 -2.041,-3.769 l 5.2,-1.55 0.327,1.088 -2.058,0.609 -0.081,0.022 c 0.137,0.504 0.342,1.137 0.44,1.275 0.372,0.857 1.75,0.016 2.295,0.095 l 0.318,1.079 c -0.925,-0.05 -2.171,0.779 -2.834,-0.244"
       id="path286"
       style="fill:#676659;fill-opacity:1;fill-rule:nonzero;stroke:none" /><path
       d="m 487.13531,119.22838 c -0.19,-0.186 -0.349,-0.287 -0.596,-0.297 -0.41,-0.021 -0.776,0.651 -1.351,1.376 l 1.123,0.863 c 0.578,-0.785 1.252,-1.445 0.824,-1.942 z m -0.814,3.373 -4.307,-3.289 0.684,-0.899 1.702,1.297 0.075,0.052 c 0.317,-0.406 0.716,-0.941 0.764,-1.103 0.478,-0.807 -1.022,-1.421 -1.269,-1.913 l 0.68,-0.891 c 0.504,0.785 1.909,1.298 1.468,2.434 0.304,-0.221 0.567,-0.386 0.99,-0.307 0.427,0.059 0.819,0.358 1.068,0.756 0.557,1.087 -0.468,2.032 -1.855,3.863"
       id="path290"
       style="fill:#676659;fill-opacity:1;fill-rule:nonzero;stroke:none" /><path
       d="m 426.07731,40.552384 84.565,0 0,12.423 -84.565,0 0,-12.423 z"
       id="path292"
       style="fill:#676659;fill-opacity:1;fill-rule:nonzero;stroke:none" /><path
       d="m 426.07731,26.167384 84.565,0 0,12.427 -84.565,0 0,-12.427 z"
       id="path294"
       style="fill:#bd1a30;fill-opacity:1;fill-rule:nonzero;stroke:none" /><path
       d="m 449.56831,43.822381 c 0.264,-0.015 0.529,0.03 0.759,0.131 0.419,0.153 0.792,0.553 0.799,0.989 l 0.003,5.869 1.665,0 0,-5.869 c -0.02,-0.603 -0.174,-1.111 -0.743,-1.581 -0.665,-0.568 -1.565,-0.8 -2.472,-0.796 l -0.023,0 c -0.911,-0.004 -1.808,0.228 -2.47,0.796 -0.574,0.47 -0.726,0.978 -0.752,1.581 l 0,5.869 1.665,0 0.005,-5.869 c 0.014,-0.48 0.381,-0.836 0.802,-0.989 0.229,-0.101 0.497,-0.146 0.762,-0.131"
       id="path298"
       style="fill:#ffffff;fill-opacity:1;fill-rule:nonzero;stroke:none" /><path
       d="m 477.84631,47.777383 -3.695,0.003 0,1.737 4.239,0.003 0.003,1.336 -5.936,0 0,-8.077 5.936,0 -0.003,1.343 -4.245,0 0.001,2.257 3.704,0 -0.004,1.398"
       id="path302"
       style="fill:#ffffff;fill-opacity:1;fill-rule:nonzero;stroke:none" /><path
       d="m 499.59931,43.831384 c 0.265,-0.007 0.53,0.036 0.76,0.131 0.416,0.16 0.792,0.555 0.799,0.992 l 0.003,5.872 1.669,0 0,-5.872 c -0.026,-0.602 -0.178,-1.112 -0.751,-1.578 -0.663,-0.571 -1.562,-0.802 -2.473,-0.797 l -0.021,0 c -0.906,-0.005 -1.807,0.226 -2.472,0.797 -0.569,0.466 -0.725,0.976 -0.75,1.578 l 0,5.872 1.673,0 0,-5.872 c 0.013,-0.48 0.385,-0.832 0.797,-0.992 0.234,-0.095 0.497,-0.138 0.766,-0.131"
       id="path306"
       style="fill:#ffffff;fill-opacity:1;fill-rule:nonzero;stroke:none" /><path
       d="m 433.90231,50.830377 c 1.62,-0.004 2.562,0 3.901,0 1.244,0 2.224,-0.674 2.318,-1.907 0.085,-0.854 -0.183,-1.592 -1.206,-1.848 0.905,-0.252 1.489,-1.079 1.494,-2.152 0.004,-0.914 -0.706,-2.155 -2.69,-2.155 l -3.817,0 0,8.062"
       id="path310"
       style="fill:#ffffff;fill-opacity:1;fill-rule:nonzero;stroke:none" /><path
       d="m 435.5873,46.38038 c 0.595,0 1.335,0.005 2.132,-0.044 0.627,-0.04 1,-0.578 1,-1.081 0,-0.502 -0.272,-1.014 -0.851,-1.082 -0.569,-0.067 -0.627,-0.046 -2.288,-0.067 l 0.007,2.259"
       id="path314"
       style="fill:#676659;fill-opacity:1;fill-rule:nonzero;stroke:none" /><path
       d="m 435.5853,49.585382 c 0.785,0 1.31,0 1.957,0 0.534,0 1.006,-0.276 1.006,-0.897 0,-0.653 -0.356,-1.05 -0.945,-1.05 -0.594,0 -1.214,0 -2.016,0 l -0.002,1.947"
       id="path318"
       style="fill:#676659;fill-opacity:1;fill-rule:nonzero;stroke:none" /><path
       d="m 486.48231,45.868386 1.002,3.374 0,0.015 0.002,-0.01 0,0.01 0,-0.015 1.007,-3.374 -2.011,0 z m 1.874,4.972 -1.739,0 -2.827,-8.075 1.653,0 0.585,1.762 2.919,0 0.585,-1.762 1.648,0 -2.824,8.075"
       id="path322"
       style="fill:#ffffff;fill-opacity:1;fill-rule:nonzero;stroke:none" /><path
       d="m 463.6563,47.464379 c -0.482,-0.044 -0.718,-0.049 -2.268,-0.046 l 0,2.082 c 0.793,-0.016 1.655,0.038 2.13,0 0.482,-0.046 0.92,-0.367 0.925,-0.961 0,-0.593 -0.308,-1.027 -0.787,-1.075 z m 0.817,-0.764 c 0.83,0.271 1.717,0.631 1.623,2.198 -0.084,1.357 -1.327,1.858 -2.576,1.918 -1.385,0 -2.272,0.01 -3.817,0.021 l 0,-8.072 1.683,0 -0.007,3.294 c 0.771,0.011 1.257,0.043 2.033,-0.008 1.385,-0.082 0.816,-3.284 1.2,-3.286 l 1.585,0 c -0.513,1.277 0.2,3.523 -1.724,3.935"
       id="path326"
       style="fill:#ffffff;fill-opacity:1;fill-rule:nonzero;stroke:none" /><path
       d="m 436.04531,28.397378 -2.738,8.08 1.767,0.002 c 0.559,-2.017 1.156,-4.297 1.742,-5.986 0.59,1.689 1.191,3.969 1.742,5.984 l 1.745,0.002 -2.711,-8.082 -1.547,0"
       id="path330"
       style="fill:#ffffff;fill-opacity:1;fill-rule:nonzero;stroke:none" /><path
       d="m 450.53631,33.397378 -3.696,0.002 0,1.742 4.235,0.003 0.008,1.337 -5.934,0 0,-8.082 5.931,0 -0.005,1.343 -4.24,0 0,2.262 3.701,-0.004 0,1.397"
       id="path334"
       style="fill:#ffffff;fill-opacity:1;fill-rule:nonzero;stroke:none" /><path
       d="m 469.21131,28.397384 1.689,0 0,8.082 -1.689,0 0,-8.082 z"
       id="path336"
       style="fill:#ffffff;fill-opacity:1;fill-rule:nonzero;stroke:none" /><path
       d="m 475.59231,35.099389 0,1.319 6.516,0 0,-1.319 -2.41,0 0,-6.702 -1.682,0 -0.007,6.702 -2.417,0"
       id="path340"
       style="fill:#ffffff;fill-opacity:1;fill-rule:nonzero;stroke:none" /><path
       d="m 488.03831,31.499383 1.01,3.38 0,0.015 0.003,-0.01 10e-4,0.01 0,-0.015 1.001,-3.38 -2.015,0 z m 1.875,4.978 -1.733,0 -2.833,-8.08 1.655,0 0.583,1.763 2.918,0 0.586,-1.763 1.653,0 -2.829,8.08"
       id="path344"
       style="fill:#ffffff;fill-opacity:1;fill-rule:nonzero;stroke:none" /><path
       d="m 460.72932,33.117379 c -0.48,-0.051 -0.72,-0.057 -2.261,-0.052 l 0,2.081 c 0.788,-0.012 1.655,0.044 2.13,0 0.478,-0.037 0.916,-0.361 0.921,-0.959 0.005,-0.593 -0.314,-1.022 -0.79,-1.07 z m 0.822,-0.765 c 0.827,0.27 1.717,0.629 1.621,2.196 -0.082,1.357 -1.325,1.858 -2.571,1.925 -1.391,0 -2.278,0.008 -3.82,0.017 l 0,-8.07 1.68,0 -0.007,3.289 c 0.771,0.007 1.255,0.042 2.033,-0.002 1.383,-0.086 0.819,-3.287 1.198,-3.287 l 1.59,0 c -0.518,1.275 0.2,3.515 -1.724,3.932"
       id="path348"
       style="fill:#ffffff;fill-opacity:1;fill-rule:nonzero;stroke:none" /><path
       d="m 496.58831,30.924386 c 0,-1.174 0.945,-2.708 3.398,-2.708 1.987,0 3.392,0.915 3.392,2.719 0,2.723 -4.884,1.976 -4.884,3.429 0,0.563 0.46,1.079 1.646,1.079 1.092,0 1.491,-0.606 1.491,-1.265 l 1.555,0.057 c 0,0.516 -0.265,2.526 -3.228,2.526 -2.134,0 -3.122,-1.241 -3.122,-2.691 0,-2.723 4.858,-1.717 4.858,-3.433 0,-0.948 -0.965,-1.132 -1.832,-1.132 -1.125,0 -1.729,0.834 -1.729,1.476 l -1.545,-0.057"
       id="path352"
       style="fill:#ffffff;fill-opacity:1;fill-rule:nonzero;stroke:none" /><g
       transform="translate(494.28101,352.063)"
       id="g378" /><g
       id="g396"><g
         clip-path="url(#clipPath400)"
         id="g398"><text
           transform="matrix(1,0,0,-1,-641.9686,-23.1726)"
           id="text404"><tspan
             x="0 4.0019999 8.0039997 12.336 14.004 17.34 20.676001 24.011999 27.348 30.684 34.02 37.355999 40.692001 44.028 48.360001 53.028 57.360001 61.362 64.697998 68.363998 70.031998 73.367996 77.370003 80.706001 84.042 88.709999 92.711998 94.379997 95.711998 99.047997 102.384 105.72 110.724 1183.2419 1186.578 1188.246 1191.582 1194.918 1196.5861 1199.922 1203.2581 1208.262 1211.598 1214.934 1216.6021 1219.938 1223.274 1224.942 1228.278"
             y="0"
             id="tspan406"
             style="font-size:6px;font-variant:normal;font-weight:normal;writing-mode:lr-tb;fill:none;stroke:#ffffff;stroke-width:0.40000001;stroke-linecap:butt;stroke-linejoin:miter;stroke-miterlimit:10;stroke-opacity:1;stroke-dasharray:none;font-family:Helvetica;-inkscape-font-specification:Helvetica">VERI_1101664_COUV_FI_A4_GB.indd 14/02/11 15:40:22</tspan></text>
</g></g></g></svg>