<svg height="512" viewBox="0 0 512 512" width="512" xmlns="http://www.w3.org/2000/svg"><g id="Farm_Field" data-name="Farm Field"><g id="Flat"><path d="m504 512h-496a8 8 0 0 1 -8-8v-144a8 8 0 0 1 8-8c168.58 0 426.342 33.458 502.66 147.56 3.452 5.161-.416 12.495-6.66 12.44z" fill="#81c784"/><path d="m112 392h-80a16 16 0 0 1 -16-16v-239.15c0-30.731 24.4-56.375 55.13-56.843a56.061 56.061 0 0 1 56.87 55.993v240a16 16 0 0 1 -16 16z" fill="#e2dbd5"/><path d="m136 152h-128a8 8 0 0 1 0-16h128a8 8 0 0 1 0 16z" fill="#c6bab3"/><path d="m16 262.784v113.216a16 16 0 0 0 16 16h80a16 16 0 0 0 16-16v-178.673a163.864 163.864 0 0 1 -112 65.457z" fill="#d4ccc7"/><circle cx="48" cy="184" fill="#efebe8" r="16"/><circle cx="80" cy="200" fill="#efebe8" r="8"/><path d="m464 280h16v80h-16z" fill="#a1887f"/><path d="m472 328a40.045 40.045 0 0 1 -40-40v-32a40 40 0 0 1 80 0v32a40.045 40.045 0 0 1 -40 40z" fill="#49ad4d"/><path d="m424 344a40.045 40.045 0 0 1 -40-40v-32a40 40 0 0 1 80 0v32a40.045 40.045 0 0 1 -40 40z" fill="#81c784"/><path d="m400 312a72.2 72.2 0 0 1 -15.5-1.691 40 40 0 0 0 79.5-6.309v-31.028a71.977 71.977 0 0 1 -64 39.028z" fill="#66bb6a"/><path d="m424 280a8 8 0 0 0 -8 8v80h16v-80a8 8 0 0 0 -8-8z" fill="#a1887f"/><circle cx="412" cy="260" fill="#c8e6c9" r="12"/><circle cx="440" cy="272" fill="#c8e6c9" r="8"/><path d="m504 512h-152a8 8 0 0 1 -8-8v-104c-.021-6.657 44.413-48 160-48a8 8 0 0 1 8 8v144a8 8 0 0 1 -8 8z" fill="#81c784"/><path d="m512 384.08v16.01c-77.06 1.53-133.87 25.07-168 44.58v-18.27c36.47-19.47 93.21-40.88 168-42.32z" fill="#49ad4d"/><path d="m512 416.13v16c-68.03 2.13-144.13 30.66-168 51.37v-19.84c34.87-22.64 106.54-45.65 168-47.53z" fill="#49ad4d"/><path d="m510.66 499.56c-40.73-60.894-133.139-98.817-236.089-120.946a236.735 236.735 0 0 1 -118.791 133.386h348.22c6.244.055 10.112-7.279 6.66-12.44z" fill="#66bb6a"/><circle cx="400" cy="96" fill="#ea6049" r="64"/><g fill="#f27c6d"><circle cx="400" cy="8" r="8"/><circle cx="328" cy="40" r="8"/><circle cx="472" cy="168" r="8"/><circle cx="464" cy="32" r="8"/><circle cx="336" cy="160" r="8"/><circle cx="488" cy="96" r="8"/><circle cx="312" cy="96" r="8"/><circle cx="400" cy="184" r="8"/></g><path d="m438.49 44.905c10.452 51.711-37.027 100.439-89.585 89.585a63.975 63.975 0 1 0 89.585-89.585z" fill="#de513e"/><circle cx="376" cy="72" fill="#f27c6d" r="16"/><circle cx="408" cy="96" fill="#f27c6d" r="8"/><path d="m328 400h-168v-128c-.231-5.022 22.913-32.882 25.6-36.8 1.792-2.612 55.636-32.549 58.431-34.146a8 8 0 0 1 7.938 0c2.821 1.612 60.031 30.946 60.031 30.946l24 40v120a8 8 0 0 1 -8 8z" fill="#ea6049"/><path d="m322.9 250.17a176.078 176.078 0 0 1 -162.9 133.641v16.189h168a8 8 0 0 0 8-8v-120z" fill="#de513e"/><path d="m304 288h-96a8 8 0 0 0 -8 8v96a8 8 0 0 0 8 8h96a8 8 0 0 0 8-8v-96a8 8 0 0 0 -8-8zm-59.313 56-28.687 28.687v-57.374zm-17.374-40h57.374l-28.687 28.687zm28.687 51.313 28.687 28.687h-57.374zm11.313-11.313 28.687-28.687v57.374z" fill="#fff"/><circle cx="240" cy="264" fill="#cf3f30" r="8"/><circle cx="272" cy="264" fill="#cf3f30" r="8"/><path d="m176 400h-80a8 8 0 0 1 -8-8v-120a8 8 0 0 1 8-8h80z" fill="#de513e"/><path d="m248 200h-80l-56 32s-20.826 33.1-22.4 35.2a7.979 7.979 0 0 0 -1.583 4.8h87.983l16-32z" fill="#a1887f"/><path d="m199.29 200c-17.111 37.545-58.981 61.466-101.767 54.914-3.953 6.224-7.323 11.486-7.923 12.286a7.979 7.979 0 0 0 -1.583 4.8h87.983l16-32 56-40z" fill="#9c7b70"/><circle cx="164" cy="220" fill="#bcaaa4" r="12"/><circle cx="136" cy="240" fill="#bcaaa4" r="8"/><circle cx="244" cy="228" fill="#f27c6d" r="12"/><circle cx="272" cy="240" fill="#f27c6d" r="8"/><path d="m88 365.3v26.7a8 8 0 0 0 8 8h80v-94.365a98.7 98.7 0 0 1 -88 59.665z" fill="#cf3f30"/><path d="m488.28 512h-26.75c-110.601-76.958-387.213-80.267-461.53-79.98v-16c109.278.624 364.734.944 488.28 95.98z" fill="#49ad4d"/><path d="m448.9 512h-42.36c-97.777-33.822-339.29-40.452-406.54-40v-16.01c74.728 2.384 349.559 7.547 448.9 56.01z" fill="#49ad4d"/></g></g></svg>