<svg height="512" viewBox="0 0 512 512" width="512" xmlns="http://www.w3.org/2000/svg"><g id="Flat"><path d="m292 220a16.971 16.971 0 0 0 0 24 16.971 16.971 0 0 0 -24 24 16.971 16.971 0 0 0 -24 24 16.971 16.971 0 0 0 -24 24l180 180 96-96-88-88v-64a16 16 0 0 0 -16-16 16 16 0 0 0 -16 16v32l-60-60a16.971 16.971 0 0 0 -24 0z" fill="#fec093"/><path d="m360.118 399.716h135.765v56.569h-135.765z" fill="#d75246" transform="matrix(.707 -.707 .707 .707 -177.283 428)"/><path d="m408 452a12 12 0 1 0 12-12 12.013 12.013 0 0 0 -12 12z" fill="#b33b30"/><path d="m324.118 369.373h135.765v45.255h-135.765z" fill="#e0e0de" transform="matrix(.707 -.707 .707 .707 -162.372 392)"/><rect fill="#feb784" height="65.539" rx="8" transform="matrix(.707 -.707 .707 .707 -142.665 276.527)" width="16" x="254.485" y="277.716"/><rect fill="#feb784" height="65.539" rx="8" transform="matrix(.707 -.707 .707 .707 -118.666 286.468)" width="16" x="278.485" y="253.716"/><rect fill="#feb784" height="65.539" rx="8" transform="matrix(.707 -.707 .707 .707 -94.667 296.409)" width="16" x="302.485" y="229.716"/><path d="m220 219.029a16.97 16.97 0 0 0 24 0 16.971 16.971 0 0 0 24 24 16.971 16.971 0 0 0 24 24 16.971 16.971 0 0 0 24 24l180-180-96-96-88 88h-64a16 16 0 0 0 -16 16 16 16 0 0 0 16 16h32l-60 60a16.971 16.971 0 0 0 0 24z" fill="#fec9a3"/><path d="m399.716 15.147h56.569v135.765h-56.569z" fill="#34507b" transform="matrix(.707 -.707 .707 .707 66.648 326.96)"/><path d="m452 103.029a12 12 0 1 0 -12-12 12.013 12.013 0 0 0 12 12z" fill="#283f61"/><path d="m369.373 51.147h45.255v135.765h-45.255z" fill="#e0e0de" transform="matrix(.707 -.707 .707 .707 30.648 312.049)"/><rect fill="#feb784" height="16" rx="8" transform="matrix(.707 -.707 .707 .707 -84.81 292.326)" width="65.539" x="277.716" y="240.544"/><rect fill="#feb784" height="16" rx="8" transform="matrix(.707 -.707 .707 .707 -74.869 268.327)" width="65.539" x="253.716" y="216.544"/><rect fill="#feb784" height="16" rx="8" transform="matrix(.707 -.707 .707 .707 -64.928 244.329)" width="65.539" x="229.716" y="192.544"/><path d="m220 292a16.971 16.971 0 0 0 0-24 16.971 16.971 0 0 0 24-24 16.971 16.971 0 0 0 24-24 16.971 16.971 0 0 0 24-24l-180-180-96 96 88 88v64a16 16 0 0 0 16 16 16 16 0 0 0 16-16v-32l60 60a16.971 16.971 0 0 0 24 0z" fill="#fec9a3"/><path d="m16.118 55.716h135.765v56.569h-135.765z" fill="#4db7e5" transform="matrix(.707 -.707 .707 .707 -34.794 84)"/><path d="m104 60a12 12 0 1 0 -12 12 12.013 12.013 0 0 0 12-12z" fill="#2d97c4"/><path d="m52.118 97.373h135.765v45.255h-135.765z" fill="#e0e0de" transform="matrix(.707 -.707 .707 .707 -49.706 120)"/><rect fill="#feb784" height="65.539" rx="8" transform="matrix(.707 -.707 .707 .707 -69.413 235.442)" width="16" x="241.514" y="168.745"/><rect fill="#feb784" height="65.539" rx="8" transform="matrix(.707 -.707 .707 .707 -93.411 225.501)" width="16" x="217.514" y="192.745"/><rect fill="#feb784" height="65.539" rx="8" transform="matrix(.707 -.707 .707 .707 -117.41 215.56)" width="16" x="193.514" y="216.745"/><path d="m292 292a16.971 16.971 0 0 0 -24 0 16.971 16.971 0 0 0 -24-24 16.971 16.971 0 0 0 -24-24 16.971 16.971 0 0 0 -24-24l-180 180 96 96 88-88h64a16 16 0 0 0 16-16 16 16 0 0 0 -16-16h-32l60-60a16.971 16.971 0 0 0 0-24z" fill="#fec9a3"/><path d="m55.716 360.118h56.569v135.765h-56.569z" fill="#348fd9" transform="matrix(.707 -.707 .707 .707 -278.039 184.755)"/><path d="m60 408a12 12 0 1 0 12 12 12.013 12.013 0 0 0 -12-12z" fill="#2b78b8"/><path d="m97.373 324.118h45.255v135.765h-45.255z" fill="#e0e0de" transform="matrix(.707 -.707 .707 .707 -242.039 199.667)"/><rect fill="#feb784" height="16" rx="8" transform="matrix(.707 -.707 .707 .707 -126.581 219.359)" width="65.539" x="168.745" y="254.485"/><rect fill="#feb784" height="16" rx="8" transform="matrix(.707 -.707 .707 .707 -136.522 243.357)" width="65.539" x="192.745" y="278.485"/><rect fill="#feb784" height="16" rx="8" transform="matrix(.707 -.707 .707 .707 -146.463 267.356)" width="65.539" x="216.745" y="302.485"/><g fill="#b7e7eb"><path d="m248 16h16v16h-16z"/><path d="m248 48h16v32h-16z"/><path d="m199.467 15.14h15.999v65.719h-15.999z" transform="matrix(.974 -.227 .227 .974 -5.48 48.397)"/><path d="m271.674 40h65.719v15.999h-65.719z" transform="matrix(.227 -.974 .974 .227 188.604 333.666)"/><path d="m248 480h16v16h-16z"/><path d="m248 432h16v32h-16z"/><path d="m296.534 431.14h15.999v65.719h-15.999z" transform="matrix(.974 -.227 .227 .974 -97.467 81.335)"/><path d="m174.607 456h65.719v15.999h-65.719z" transform="matrix(.227 -.974 .974 .227 -291.534 560.63)"/><path d="m16 248h16v16h-16z"/><path d="m48 248h32v16h-32z"/><path d="m15.14 296.533h65.719v16.001h-65.719z" transform="matrix(.974 -.227 .227 .974 -67.942 18.873)"/><path d="m40 174.607h16.001v65.719h-16.001z" transform="matrix(.227 -.974 .974 .227 -164.947 207.068)"/><path d="m480 248h16v16h-16z"/><path d="m432 248h32v16h-32z"/><path d="m431.14 199.467h65.719v16.001h-65.719z" transform="matrix(.974 -.227 .227 .974 -35.005 110.86)"/><path d="m456 271.674h16.001v65.719h-16.001z" transform="matrix(.227 -.974 .974 .227 61.997 687.195)"/></g></g></svg>