<svg
    xmlns="http://www.w3.org/2000/svg"
    viewBox="0 0 512 512"
    id="vector">
    <path
        id="path"
        d="M 256.025 483.334 L 357.454 457.72 C 415.349 409.646 452.225 337.134 452.225 256.001 C 452.225 130.857 364.514 26.2 247.213 0.149 C 109.897 4.78 0 117.556 0 256 C 0 327.112 29 391.446 75.812 437.836 Z"
        fill="#cbe2ff"/>
    <path
        id="path_1"
        d="M 446.914 256 C 446.914 339.915 406.533 414.391 344.149 461.079 L 436.18 437.838 C 482.995 391.448 512 327.114 512 256 C 512 114.615 397.385 0 256 0 C 244.976 0 234.114 0.698 223.457 2.05 C 349.476 18.038 446.914 125.64 446.914 256 Z"
        fill="#bed8fb"/>
    <path
        id="path_2"
        d="M 319.621 96.952 C 319.621 83.877 309.022 73.278 295.947 73.278 L 214.365 73.278 C 184.274 73.278 159.88 97.672 159.88 127.763 L 159.88 188.256 L 352.089 188.256 L 352.089 128.621 C 352.089 115.546 341.49 104.947 328.415 104.947 L 327.617 104.947 C 323.201 104.947 319.621 101.368 319.621 96.952 Z"
        fill="#365e7d"/>
    <path
        id="path_3"
        d="M 328.415 104.947 L 327.617 104.947 C 323.201 104.947 319.621 101.367 319.621 96.951 C 319.621 83.876 309.022 73.277 295.947 73.277 L 287.002 73.277 L 287.002 188.255 L 352.088 188.255 L 352.088 128.62 C 352.089 115.547 341.489 104.947 328.415 104.947 Z"
        fill="#2b4d66"/>
    <path
        id="path_4"
        d="M 425.045 372.355 C 418.786 366.173 411.044 361.392 402.255 358.61 L 332.364 336.482 L 256.016 333.799 L 179.636 336.482 L 109.745 358.61 C 86.101 366.096 70.032 388.038 70.032 412.839 L 70.032 431.933 C 114.821 479.261 177.483 509.501 247.215 511.853 C 325.343 494.5 390.344 442.277 425.045 372.355 Z"
        fill="#4a80aa"/>
    <path
        id="path_5"
        d="M 441.968 431.932 L 441.968 412.838 C 441.968 395.302 433.928 379.203 420.863 368.625 C 383.752 444.251 310.441 498.893 223.517 509.942 C 234.009 511.271 244.695 511.98 255.543 511.999 C 265.966 511.983 276.251 511.379 286.367 510.217 C 347.398 503.005 401.852 474.323 441.968 431.932 Z"
        fill="#407093"/>
    <path
        id="path_6"
        d="M 261.796 508.168 C 277.285 477.417 317.618 390.101 306.117 335.559 L 256.016 316.06 L 205.868 335.56 C 194.012 391.785 237.238 482.837 251.549 510.85 C 254.991 510.024 258.408 509.129 261.796 508.168 Z"
        fill="#e4f6ff"/>
    <path
        id="path_7"
        d="M 288.197 483.789 L 267.883 403.872 L 244.116 403.872 L 223.852 483.571 L 248.91 511.468 C 255.271 510.011 261.544 508.322 267.72 506.411 Z"
        fill="#e28086"/>
    <path
        id="path_8"
        d="M 249.302 511.905 C 251.377 511.959 253.456 511.996 255.543 512 C 257.958 511.996 260.365 511.954 262.765 511.887 L 275.672 497.628 C 265.513 501.192 255.062 504.134 244.363 506.407 Z"
        fill="#dd636e"/>
    <path
        id="path_9"
        d="M 298.774 328.183 L 298.774 283.117 L 213.194 283.117 L 213.194 328.183 C 213.194 351.815 255.984 377.629 255.984 377.629 C 255.984 377.629 298.774 351.815 298.774 328.183 Z"
        fill="#ffddce"/>
    <path
        id="path_10"
        d="M 352.089 180.318 L 335.73 180.318 C 326.632 180.318 319.257 172.943 319.257 163.845 L 319.257 154.83 C 319.257 142.979 307.662 134.6 296.41 138.319 C 270.167 146.993 241.831 146.995 215.587 138.325 L 215.556 138.315 C 204.304 134.598 192.711 142.977 192.711 154.827 L 192.711 163.846 C 192.711 172.944 185.336 180.319 176.238 180.319 L 159.88 180.319 L 159.88 207.257 C 159.88 214.14 165.46 219.721 172.344 219.721 C 174.516 219.721 176.283 221.422 176.42 223.59 C 179.048 265.258 213.655 298.244 255.985 298.244 C 298.315 298.244 332.922 265.258 335.55 223.59 C 335.687 221.423 337.454 219.721 339.626 219.721 C 346.509 219.721 352.09 214.141 352.09 207.257 L 352.09 180.318 Z"
        fill="#ffddce"/>
    <path
        id="path_11"
        d="M 335.73 180.318 C 326.632 180.318 319.257 172.943 319.257 163.845 L 319.257 154.83 C 319.257 142.979 307.662 134.6 296.41 138.319 C 293.302 139.346 290.163 140.242 287.003 141.026 L 287.003 229.998 C 286.565 258.946 270.703 284.14 247.278 297.756 C 250.139 298.067 253.041 298.242 255.984 298.242 C 298.314 298.242 332.921 265.256 335.549 223.588 C 335.686 221.421 337.453 219.719 339.625 219.719 C 346.508 219.719 352.089 214.139 352.089 207.255 L 352.089 180.317 L 335.73 180.317 Z"
        fill="#ffcbbe"/>
    <path
        id="path_12"
        d="M 213.194 316.06 L 179.636 343.327 L 214.828 386.84 C 219.109 391.008 225.847 391.264 230.433 387.434 L 256.898 365.327 Z"
        fill="#f4fbff"/>
    <path
        id="path_13"
        d="M 298.79 316.06 L 256.898 365.327 L 281.772 386.595 C 286.329 390.491 293.099 390.295 297.423 386.142 L 332.363 343.327 Z"
        fill="#f4fbff"/>
    <path
        id="path_14"
        d="M 213.194 316.06 L 163.938 340.259 C 160.188 342.101 158.682 346.663 160.597 350.376 L 170.247 369.086 C 172.748 373.934 171.825 379.842 167.965 383.696 C 165.978 385.679 163.826 387.827 161.961 389.689 C 158.623 393.021 157.424 397.944 158.894 402.426 C 170.545 437.943 226.619 492.254 247.84 511.904 C 249.267 511.942 250.697 511.968 252.13 511.984 C 236.741 482.051 182.208 368.329 213.194 316.06 Z"
        fill="#365e7d"/>
    <path
        id="path_15"
        d="M 344.019 383.695 C 340.158 379.841 339.236 373.933 341.737 369.085 L 351.387 350.375 C 353.302 346.662 351.796 342.1 348.046 340.258 L 298.79 316.06 C 329.768 368.315 275.273 481.989 259.867 511.96 C 261.315 511.935 262.76 511.899 264.202 511.851 C 285.467 492.156 341.45 437.911 353.09 402.427 C 354.56 397.945 353.361 393.022 350.023 389.69 C 348.158 387.827 346.006 385.678 344.019 383.695 Z"
        fill="#365e7d"/>
    <path
        id="path_16"
        d="M 256.898 365.327 L 230.838 387.091 L 244.116 403.872 L 267.883 403.872 L 281.162 386.101 Z"
        fill="#dd636e"/>
</svg>
