<svg
    xmlns="http://www.w3.org/2000/svg"
    viewBox="0 0 512 512"
    id="vector">
    <path
        id="path"
        d="M 384 0 L 56 0 C 38.355 0 24 14.355 24 32 L 24 480 C 24 497.645 38.355 512 56 512 L 384 512 C 401.645 512 416 497.645 416 480 L 416 32 C 416 14.355 401.645 0 384 0 Z"
        fill="#6b7b8b"/>
    <path
        id="path_1"
        d="M 352 496 C 356.418 496 360 492.418 360 488 L 360 24 C 360 19.582 356.418 16 352 16 L 28.305 16 C 25.573 20.711 24 26.173 24 32 L 24 480 C 24 485.827 25.573 491.289 28.305 496 L 352 496 Z"
        fill="#55697a"/>
    <path
        id="path_2"
        d="M 368 96 L 336 96 C 331.582 96 328 99.582 328 104 L 328 184 C 328 188.418 331.582 192 336 192 L 368 192 C 376.837 192 384 184.837 384 176 L 384 112 C 384 103.163 376.837 96 368 96 Z"
        fill="#fd8e61"/>
    <path
        id="path_3"
        d="M 368 208 L 336 208 C 331.582 208 328 211.582 328 216 L 328 296 C 328 300.418 331.582 304 336 304 L 368 304 C 376.837 304 384 296.837 384 288 L 384 224 C 384 215.163 376.837 208 368 208 Z"
        fill="#fddd88"/>
    <path
        id="path_4"
        d="M 368 320 L 336 320 C 331.582 320 328 323.582 328 328 L 328 408 C 328 412.418 331.582 416 336 416 L 368 416 C 376.837 416 384 408.837 384 400 L 384 336 C 384 327.163 376.837 320 368 320 Z"
        fill="#49dfe5"/>
    <path
        id="path_5"
        d="M 32 49.75 L 32 462.25 C 32 467.635 36.365 472 41.75 472 L 326.25 472 C 331.635 472 336 467.635 336 462.25 L 336 49.75 C 336 44.365 331.635 40 326.25 40 L 41.75 40 C 36.365 40 32 44.365 32 49.75 Z M 81.947 375.923 C 67.159 377.089 54.911 364.84 56.077 350.052 C 56.995 338.419 66.42 328.994 78.053 328.077 C 92.841 326.911 105.089 339.16 103.923 353.948 C 103.005 365.581 93.58 375.006 81.947 375.923 Z M 81.947 279.923 C 67.159 281.089 54.911 268.84 56.077 254.052 C 56.995 242.419 66.42 232.994 78.053 232.077 C 92.841 230.911 105.089 243.16 103.923 257.948 C 103.005 269.581 93.58 279.006 81.947 279.923 Z M 81.947 183.923 C 67.159 185.089 54.911 172.84 56.077 158.052 C 56.995 146.419 66.42 136.994 78.053 136.077 C 92.841 134.911 105.089 147.16 103.923 161.948 C 103.005 173.581 93.58 183.006 81.947 183.923 Z"
        fill="#f4f6f7"/>
    <path
        id="path_6"
        d="M 64 168 L 8 168 C 3.582 168 0 164.418 0 160 C 0 155.582 3.582 152 8 152 L 64 152 C 68.418 152 72 155.582 72 160 C 72 164.418 68.418 168 64 168 Z"
        fill="#d5d9de"/>
    <path
        id="path_7"
        d="M 64 264 L 8 264 C 3.582 264 0 260.418 0 256 C 0 251.582 3.582 248 8 248 L 64 248 C 68.418 248 72 251.582 72 256 C 72 260.418 68.418 264 64 264 Z"
        fill="#d5d9de"/>
    <path
        id="path_8"
        d="M 64 360 L 8 360 C 3.582 360 0 356.418 0 352 C 0 347.582 3.582 344 8 344 L 64 344 C 68.418 344 72 347.582 72 352 C 72 356.418 68.418 360 64 360 Z"
        fill="#d5d9de"/>
    <path
        id="path_9"
        d="M 296 168 L 120 168 C 115.582 168 112 164.418 112 160 C 112 155.582 115.582 152 120 152 L 296 152 C 300.418 152 304 155.582 304 160 C 304 164.418 300.418 168 296 168 Z"
        fill="#d5d9de"/>
    <path
        id="path_10"
        d="M 296 264 L 120 264 C 115.582 264 112 260.418 112 256 C 112 251.582 115.582 248 120 248 L 296 248 C 300.418 248 304 251.582 304 256 C 304 260.418 300.418 264 296 264 Z"
        fill="#d5d9de"/>
    <path
        id="path_11"
        d="M 296 360 L 120 360 C 115.582 360 112 356.418 112 352 C 112 347.582 115.582 344 120 344 L 296 344 C 300.418 344 304 347.582 304 352 C 304 356.418 300.418 360 296 360 Z"
        fill="#d5d9de"/>
    <path
        id="path_12"
        d="M 479.994 432 C 475.729 432 472.186 428.635 472.007 424.333 C 471.823 419.919 475.253 416.19 479.667 416.007 L 496 415.326 L 496 305 C 496 300.582 499.582 297 504 297 C 508.418 297 512 300.582 512 305 L 512 423 C 512 427.289 508.618 430.814 504.333 430.993 L 480.333 431.993 C 480.22 431.998 480.106 432 479.994 432 Z"
        fill="#55697a"/>
    <path
        id="path_13"
        d="M 460 88 C 455.582 88 452 84.418 452 80 L 452 48 C 452 43.582 455.582 40 460 40 C 464.418 40 468 43.582 468 48 L 468 80 C 468 84.418 464.418 88 460 88 Z"
        fill="#55697a"/>
    <path
        id="path_14"
        d="M 480 320 L 456 336 L 440 320 L 440 100 C 440 88.954 448.954 80 460 80 L 460 80 C 471.046 80 480 88.954 480 100 L 480 320 Z"
        fill="#fddd88"/>
    <path
        id="path_15"
        d="M 468 81.675 C 465.549 80.603 462.846 80 460 80 C 448.954 80 440 88.954 440 100 L 440 320 L 448 328 L 456 320 L 456 100 C 456 91.801 460.939 84.763 468 81.675 Z"
        fill="#fcd56a"/>
    <path
        id="path_16"
        d="M 480 320.002 L 480 440 C 480 448.837 472.837 456 464 456 L 456 456 C 447.163 456 440 448.837 440 440 L 440 320.002"
        fill="#76e7eb"/>
    <path
        id="path_17"
        d="M 440 320.002 L 440 440 C 440 448.836 447.163 456 456 456 L 464 456 C 465.384 456 466.719 455.806 468 455.476 C 461.103 453.697 456 447.453 456 440 L 456 320.002"
        fill="#1bd7de"/>
</svg>
