<svg
    xmlns="http://www.w3.org/2000/svg"
    viewBox="0 0 481 481"
    id="vector">
    <path
        id="path"
        d="M 315.031 0 L 69.873 0 C 63.849 0 58.428 4.819 58.428 11.445 L 58.428 470.438 C 58.428 476.462 63.247 481.883 69.873 481.883 L 412.01 481.883 C 418.034 481.883 423.455 477.064 423.455 470.438 L 423.455 108.424 C 423.455 105.412 422.25 102.4 420.443 100.593 L 322.861 3.012 C 320.452 1.205 318.042 0 315.031 0 Z"
        fill="#ebf0f3"/>
    <path
        id="path_1"
        d="M 330.692 103.605 L 422.25 103.605 C 421.648 102.4 421.045 101.196 419.841 100.593 L 371.05 51.802 L 322.861 3.012 C 321.656 1.807 321.054 1.205 319.849 0.603 L 319.849 92.16 C 319.247 98.786 324.668 103.605 330.692 103.605 Z"
        fill="#d5d6db"/>
    <path
        id="path_2"
        d="M 137.939 425.864 C 129.506 425.864 122.88 421.045 119.868 418.033 C 109.628 405.986 109.628 395.746 111.435 389.12 C 112.64 383.096 116.254 377.675 121.675 374.061 C 129.506 368.037 151.19 352.979 183.115 339.727 C 199.981 309.007 211.426 284.31 219.256 264.433 C 206.004 239.134 201.185 218.654 199.981 208.414 C 198.776 199.981 199.379 191.548 201.788 184.32 C 207.812 165.045 221.063 164.442 226.484 165.045 C 227.689 165.045 248.771 168.057 252.385 198.174 C 252.385 199.379 254.794 218.654 238.531 263.83 C 248.771 281.298 263.227 300.574 285.515 319.247 C 306.597 319.247 329.487 321.054 353.581 327.078 C 359.002 328.283 363.821 331.294 367.435 335.511 C 373.459 342.137 374.663 350.57 371.651 359.003 L 371.651 359.003 C 371.651 359.003 370.446 363.219 366.832 367.436 C 360.206 376.471 347.557 379.483 337.317 374.062 C 314.428 362.015 295.152 349.366 279.491 336.114 C 247.566 337.319 219.256 344.547 196.366 353.582 C 186.126 372.255 173.477 392.735 159.02 415.624 C 156.008 419.84 152.394 423.455 147.575 425.262 L 147.575 425.262 C 143.36 425.261 140.348 425.864 137.939 425.864 Z M 167.454 365.026 C 149.383 374.664 136.734 383.097 131.915 387.313 C 130.108 389.12 128.301 390.927 128.301 392.734 C 127.096 396.95 128.903 401.167 133.12 405.986 C 133.12 405.986 136.734 408.998 140.348 407.793 L 140.348 407.793 C 141.553 407.191 142.757 406.588 143.36 404.781 C 151.793 390.927 160.226 377.675 167.454 365.026 Z M 307.802 336.113 C 318.644 343.341 330.691 351.172 343.943 357.798 C 346.352 359.003 349.364 358.4 351.171 355.991 C 352.978 353.582 353.58 351.775 353.58 351.775 C 354.785 348.763 354.785 347.559 352.978 345.751 C 351.773 344.546 349.966 343.342 347.557 342.739 C 334.306 339.125 321.054 337.318 307.802 336.113 Z M 229.496 282.504 C 223.472 296.358 216.244 312.019 206.607 330.09 C 222.871 325.271 240.339 321.055 259.614 319.248 C 247.567 306.598 237.327 293.948 229.496 282.504 Z M 223.473 181.308 C 221.064 181.308 219.257 183.717 217.449 189.139 C 215.642 193.958 215.642 199.379 216.244 205.403 C 217.449 212.631 219.858 224.678 226.484 240.339 C 235.519 211.426 234.315 199.379 234.315 199.379 C 232.508 183.115 224.075 181.308 223.473 181.308 L 223.473 181.308 Z"
        fill="#e56353"/>
</svg>
