<svg
    xmlns="http://www.w3.org/2000/svg"
    viewBox="0 0 512 512"
    id="vector">
    <path
        id="path"
        d="M 360 136 L 360 196 C 360 204.28 353.28 211 345 211 C 336.72 211 330 204.28 330 196 L 330 136 C 330 127.72 336.72 121 345 121 C 353.28 121 360 127.72 360 136 Z"
        fill="#fabe2c"/>
    <path
        id="path_1"
        d="M 420 106 L 420 196 C 420 204.28 413.28 211 405 211 C 396.72 211 390 204.28 390 196 L 390 106 C 390 97.72 396.72 91 405 91 C 413.28 91 420 97.72 420 106 Z"
        fill="#6aa9ff"/>
    <path
        id="path_2"
        d="M 480 76 L 480 196 C 480 204.28 473.28 211 465 211 C 456.72 211 450 204.28 450 196 L 450 76 C 450 67.72 456.72 61 465 61 C 473.28 61 480 67.72 480 76 Z"
        fill="#ff435b"/>
    <path
        id="path_3"
        d="M 270 46 L 270 241 L 143 233 L 46.8 170.52 C 81.24 86.47 163.07 31 255 31 C 263.28 31 270 37.72 270 46 Z"
        fill="#fed843"/>
    <path
        id="path_4"
        d="M 480 256 C 480 375.33 387.34 472.8 270 480.5 C 265.04 480.83 260.04 481 255 481 C 217.51 481 180.87 471.73 148.18 454.07 L 178.08 332 L 270 241 L 465 241 C 473.28 241 480 247.72 480 256 Z"
        fill="#ff7b4a"/>
    <path
        id="path_5"
        d="M 480 256 C 480 375.33 387.34 472.8 270 480.5 L 270 241 L 465 241 C 473.28 241 480 247.72 480 256 Z"
        fill="#ff435b"/>
    <path
        id="path_6"
        d="M 270 241 C 259.844 258.764 146.125 457.661 140.5 467.5 C 136.1 474.54 126.83 476.65 119.82 472.26 C 47.02 426.66 0 346.11 0 256 C 0 228.42 4.38 201.28 13.02 175.34 C 15.64 167.49 24.14 163.23 32 165.85 C 32.161 165.901 267.875 240.329 270 241 Z"
        fill="#7ed8f6"/>
    <path
        id="path_7"
        d="M 512 196 C 512 204.28 505.28 211 497 211 L 315 211 C 306.72 211 300 204.28 300 196 C 300 187.72 306.72 181 315 181 L 497 181 C 505.28 181 512 187.72 512 196 Z"
        fill="#61729b"/>
</svg>
