<svg
    xmlns="http://www.w3.org/2000/svg"
    viewBox="0 0 512 512"
    id="vector">
    <path
        id="path"
        d="M 400.87 98.681 L 400.87 473.341 L 33.17 473.341 L 33.17 0 L 302.723 0 L 400.725 98.534 Z"
        fill="#ffb74d"/>
    <path
        id="path_1"
        d="M 400.87 98.681 L 400.87 473.341 L 217.02 473.341 L 217.02 0 L 302.723 0 L 400.725 98.534 Z"
        fill="#ffa91e"/>
    <path
        id="path_2"
        d="M 92.787 257.527 L 230.714 257.527 L 230.714 288.874 L 92.787 288.874 Z"
        fill="#ffffff"/>
    <path
        id="path_3"
        d="M 91.784 130.675 L 229.711 130.675 L 229.711 162.022 L 91.784 162.022 Z"
        fill="#ffffff"/>
    <path
        id="path_4"
        d="M 91.784 194.415 L 342.561 194.415 L 342.561 225.762 L 91.784 225.762 Z"
        fill="#ffffff"/>
    <path
        id="path_5"
        d="M 217.016 130.675 L 229.712 130.675 L 229.712 162.022 L 217.016 162.022 Z"
        fill="#d9d8db"/>
    <path
        id="path_6"
        d="M 217.016 257.527 L 230.704 257.527 L 230.704 288.874 L 217.016 288.874 Z"
        fill="#d9d8db"/>
    <path
        id="path_7"
        d="M 217.016 194.415 L 342.561 194.415 L 342.561 225.762 L 217.016 225.762 Z"
        fill="#d9d8db"/>
    <path
        id="path_8"
        d="M 478.83 406.601 C 478.83 464.812 431.642 512 373.43 512 C 373.179 512 372.928 512 372.678 511.99 C 344.204 511.802 318.427 500.308 299.577 481.782 C 282.65 465.147 271.312 442.849 268.648 417.938 C 268.251 414.218 268.032 410.436 268.032 406.601 C 268.032 375.014 281.94 346.676 303.945 327.356 C 304.185 327.147 304.426 326.938 304.666 326.74 C 313.245 319.342 323.035 313.313 333.683 308.966 C 345.731 304.065 358.886 301.307 372.679 301.223 C 372.93 301.213 373.181 301.213 373.431 301.213 C 431.642 301.212 478.83 348.389 478.83 406.601 Z"
        fill="#fd7052"/>
    <path
        id="path_9"
        d="M 478.83 406.601 C 478.83 464.812 431.642 512 373.43 512 C 373.179 512 372.928 512 372.678 511.99 L 372.678 301.222 C 372.929 301.212 373.18 301.212 373.43 301.212 C 431.642 301.212 478.83 348.389 478.83 406.601 Z"
        fill="#ff4f18"/>
    <path
        id="path_10"
        d="M 394.846 407.63 L 422.985 435.759 L 400.812 457.932 L 372.683 429.792 L 343.081 459.394 L 320.919 437.222 L 350.51 407.63 L 322.382 379.491 L 344.544 357.328 L 372.673 385.447 L 372.683 385.457 L 402.275 355.865 L 424.437 378.038 Z"
        fill="#ffffff"/>
    <path
        id="path_11"
        d="M 394.846 407.63 L 422.985 435.759 L 400.812 457.932 L 372.683 429.792 L 372.673 429.803 L 372.673 385.447 L 372.683 385.457 L 402.275 355.865 L 424.437 378.038 Z"
        fill="#d9d8db"/>
    <path
        id="path_12"
        d="M 400.725 98.532 L 302.724 98.532 L 302.724 0 Z"
        fill="#ff8900"/>
</svg>
